<?xml version="1.0" encoding="utf-8"?>
<!-- Generator: Adobe Illustrator 16.0.0, SVG Export Plug-In . SVG Version: 6.00 Build 0)  -->
<!DOCTYPE svg PUBLIC "-//W3C//DTD SVG 1.1//EN" "http://www.w3.org/Graphics/SVG/1.1/DTD/svg11.dtd">
<svg version="1.1" id="Layer_1" xmlns:cb="http://tooniaapp.si/xmlns/toonia"
	 xmlns="http://www.w3.org/2000/svg" xmlns:xlink="http://www.w3.org/1999/xlink" x="0px" y="0px" width="786px" height="786px"
	 viewBox="0 0 786 786" enable-background="new 0 0 786 786" xml:space="preserve">
<rect id="XMLID_271_" x="-6.32" y="-10.832" fill="#A6A8AB" stroke="#000000" stroke-width="6" stroke-linejoin="round" stroke-miterlimit="10" width="800.742" height="804.69"/>
<rect id="XMLID_270_" x="-6.32" y="584.332" fill="#A6A8AB" stroke="#000000" stroke-width="6" stroke-linejoin="round" stroke-miterlimit="10" width="800.742" height="209.526"/>
<path id="XMLID_262_" d="M720.759,760.456c-21.538,0-39.062-17.522-39.062-39.062c0-21.538,17.522-39.062,39.062-39.062
	c21.54,0,39.062,17.523,39.062,39.062C759.821,742.934,742.299,760.456,720.759,760.456z M720.759,692.768
	c-15.785,0-28.628,12.844-28.628,28.629s12.843,28.628,28.628,28.628c15.786,0,28.628-12.843,28.628-28.628
	C749.387,705.61,736.545,692.768,720.759,692.768z"/>
<ellipse id="XMLID_139_" transform="matrix(-0.7495 -0.662 0.662 -0.7495 743.4851 1677.8976)" fill="#A6A8AB" stroke="#000000" stroke-width="6" stroke-miterlimit="10" cx="689.193" cy="698.285" rx="33.284" ry="68.735"/>
<path id="XMLID_122_" fill="#A6A8AB" stroke="#000000" stroke-width="6" stroke-linejoin="round" stroke-miterlimit="10" d="
	M646.033,627.029c-19.512-3.641-41.272,15.033-33.713,40.209c4.25,14.15,19.891,20.872,33.307,27.062
	c10.02,4.622,20.768,9.235,28.688,16.578c7.202-1.755,13.061-5.476,17.502-10.491c4.164-5.248,6.807-11.665,7.276-19.062
	c-8.61-6.52-15.026-16.298-21.326-25.356C669.334,643.835,660.559,629.738,646.033,627.029z"/>
<g id="rakun" cb:transform="{0.47999999999999998, 0, 0, 0.47999999999999998, 0, 0}">
	<path id="XMLID_257_" fill="#A6A8AB" stroke="#000000" stroke-width="6" stroke-linejoin="round" stroke-miterlimit="10" d="
		M292.514,574.184c-19.216-21.487-33.799-48.868-34.859-72.169c-1.77-38.861,11.223-76.74,24.805-113.195
		c13.58-36.455,28.11-73.463,29.619-112.336c1.152-29.705-4.703-205.092-186.43-230.557
		c15.017,79.924-40.879,165.946-79.033,283.568C7.697,449.479,38.99,635.271,244.848,682.754c2.651,0.611,5.677,1.131,8.999,1.563
		C256.861,644.864,270.157,607.122,292.514,574.184z"/>
	<path id="XMLID_154_" fill="#A6A8AB" stroke="#000000" stroke-width="6" stroke-miterlimit="10" d="M251.744,153.971
		c-49.253-1.833-99.352,7.098-146.705,22.072c17.401-47.189,28.127-89.442,20.485-130.112
		c89.556,12.549,136.398,61.508,160.741,111.498C274.858,155.501,263.312,154.401,251.744,153.971z"/>
	<path id="XMLID_170_" fill="#A6A8AB" stroke="#000000" stroke-width="6" stroke-linejoin="round" stroke-miterlimit="10" d="
		M270.129,423.656c-17.655-2.75-35.773-3.147-53.471-2.472c-43.43,1.66-85.574,10.686-126.15,26.015
		c-17.489,6.606-37.646,15.138-53.979,27.39c-8.922-50.551-3.996-102.053,9.963-145.089c1.293-3.986,2.612-7.923,3.941-11.837
		c16.297-5.746,33.231-9.688,50.291-12.391c37.6-5.958,75.998-7.031,113.998-5.653c30.379,1.102,63.4,3.825,91.493,16.906
		c-5.791,24.575-15.036,48.555-23.882,72.299C278.06,400.298,273.844,411.914,270.129,423.656z"/>
	<path id="XMLID_160_" fill="#A6A8AB" stroke="#000000" stroke-width="6" stroke-linejoin="round" stroke-miterlimit="10" d="
		M261.276,641.66c6.573-23.862,17.071-46.586,31.183-67.396c-14.181-15.841-25.85-34.89-31.432-53.153
		c-3.326,1.152-6.57,2.443-9.672,3.761c-16.498,7.005-31.908,16.828-46.232,27.534c-28.617,21.39-55.643,49.924-67.93,84.054
		c28.795,20.27,64.316,36.333,107.531,46.301c2.509,0.578,5.357,1.073,8.471,1.492C254.469,669.851,257.171,655.602,261.276,641.66z
		"/>
	<path id="XMLID_113_" fill="#A6A8AB" stroke="#000000" stroke-width="6" stroke-miterlimit="10" d="M352.686,586.677
		c-7.438,11.693-79.703,109.157-138.902,64.184c-15.93-12.103-18.535-37.586-8.293-54.771c7.539-12.647,20.805-20.575,33.529-27.98
		c27.263-15.866,59.148-34.704,86.41-50.57L352.686,586.677z"/>
	<path id="XMLID_52_" fill="#A6A8AB" stroke="#000000" stroke-width="6" stroke-miterlimit="10" d="M450.35,594.154
		c10.734,8.764,109.963,78.59,152.035,17.293c11.32-16.493,5.787-41.506-9.336-54.603c-11.13-9.639-26.214-12.997-40.622-16.029
		c-30.866-6.498-67.056-14.364-97.923-20.862L450.35,594.154z"/>
	
		<ellipse id="XMLID_28_" transform="matrix(0.0215 -0.9998 0.9998 0.0215 -210.3984 987.4393)" fill="#A6A8AB" stroke="#000000" stroke-width="6" stroke-linejoin="round" stroke-miterlimit="10" cx="399.25" cy="601.205" rx="107.714" ry="102.093"/>
	<path id="XMLID_51_" fill="#A6A8AB" stroke="#000000" stroke-width="6" stroke-linejoin="round" stroke-miterlimit="10" d="
		M399.094,555.527c-27.713-0.599-51.515-22.988-63.585-45.888c-5.159,9.786-19.333,107.452,63.585,107.897
		c84.396,0.454,72.396-97.199,66.76-107.894C453.258,533.542,427.938,556.148,399.094,555.527z"/>
	<path id="XMLID_120_" fill="#A6A8AB" stroke="#000000" stroke-width="6" stroke-linejoin="round" stroke-miterlimit="10" d="
		M174.835,362.085c1.185,1.064,2.375,2.073,3.57,3.037c23.286-50.857,57.519-95.225,89.979-140.651
		c-53.581-26.544-128.679-0.845-128.679-0.845S125.113,317.41,174.835,362.085z"/>
	<path id="XMLID_116_" fill="#A6A8AB" stroke="#000000" stroke-width="6" stroke-linejoin="round" stroke-miterlimit="10" d="
		M192.773,324.97c1.527,1.373,3.075,2.576,4.634,3.652c15.629-26.947,33.706-52.443,52.003-77.811
		c-29.945-18.827-76.211-2.994-76.211-2.994S165.066,300.076,192.773,324.97z"/>
	<path id="XMLID_89_" fill="#A6A8AB" stroke="#000000" stroke-width="6" stroke-linejoin="round" stroke-miterlimit="10" d="
		M634.817,374.212c-1.186,1.064-2.375,2.073-3.57,3.037c-23.286-50.857-57.519-95.226-89.979-140.652
		c53.581-26.543,128.679-0.845,128.679-0.845S684.539,329.537,634.817,374.212z"/>
	<path id="XMLID_85_" fill="#A6A8AB" stroke="#000000" stroke-width="6" stroke-linejoin="round" stroke-miterlimit="10" d="
		M616.879,337.097c-1.527,1.373-3.074,2.576-4.635,3.652c-15.629-26.947-33.705-52.442-52.002-77.811
		c29.945-18.827,76.211-2.994,76.211-2.994S644.586,312.203,616.879,337.097z"/>
	<path id="XMLID_112_" fill="#A6A8AB" stroke="#000000" stroke-width="6" stroke-miterlimit="10" d="M577.848,264.647
		c-22.562-52.117-84.782-80.01-143.817-86.94c0.9-11.431-2.853-50.382-38.237-62.387c6.729,16.624,12.556,31.945,7.923,49.271
		c-3.5-7.847-13.732-22.775-30.734-29.672c4.23,11.648,6.721,29.135,3.451,41.083c-63.97,3.144-131.092,31.171-155.859,88.382
		c-59.312,137.001-96.293,145.739-96.293,145.739s58.373,120.92,268.487,127.123l8.827,0.411
		c214.156-4.395,272.547-127.271,272.547-127.271S637.158,401.648,577.848,264.647z"/>
	<path id="XMLID_108_" fill="#A6A8AB" stroke="#000000" stroke-width="6" stroke-miterlimit="10" d="M513.936,478.133
		c-65.102-52.273-49.407-143.279,60.398-130.958c-2.02,4.883-4.799,19.177-4.799,19.177s27.758-7.998,46.19,0.313
		c-3.642,3.613-15.097,13.715-16.799,18.845c-0.852,2.563,27.114-3.73,56.734,13.48c11.521,11.313,17.801,12.807,17.801,12.807
		s-28.851,55.101-112.227,92.819c-12.913-8.071-26.938-36.322-26.938-36.322S514.396,478.503,513.936,478.133z"/>
	<circle id="XMLID_109_" cx="546.569" cy="415.975" r="32.459"/>
	<circle id="XMLID_56_" fill="#FFFFFF" cx="555.466" cy="404.57" r="9.13"/>
	<path id="XMLID_147_" d="M438.033,407.098c0,21.442-38.824,38.824-38.824,38.824s-38.822-17.382-38.822-38.824
		c0-9.231,17.381-21.067,38.822-21.067C420.651,386.029,438.033,396.5,438.033,407.098z"/>
	<circle id="XMLID_237_" cx="422.326" cy="477.47" r="14.649"/>
	<path id="XMLID_196_" fill="#A6A8AB" stroke="#000000" stroke-width="6" stroke-miterlimit="10" d="M321.198,529.318"/>
	
		<ellipse id="XMLID_47_" transform="matrix(-0.3538 -0.9353 0.9353 -0.3538 -228.5454 1208.0215)" fill="#A6A8AB" stroke="#000000" stroke-width="6" stroke-linejoin="round" stroke-miterlimit="10" cx="303.026" cy="682.959" rx="75.793" ry="61.922"/>
	
		<circle id="XMLID_146_" fill="#A6A8AB" stroke="#000000" stroke-width="6" stroke-linejoin="round" stroke-miterlimit="10" cx="312.188" cy="706.157" r="27.781"/>
	
		<circle id="XMLID_175_" fill="#A6A8AB" stroke="#000000" stroke-width="6" stroke-linejoin="round" stroke-miterlimit="10" cx="264.851" cy="676.482" r="13.884"/>
	
		<circle id="XMLID_184_" fill="#A6A8AB" stroke="#000000" stroke-width="6" stroke-linejoin="round" stroke-miterlimit="10" cx="291.638" cy="644.962" r="13.884"/>
	
		<circle id="XMLID_194_" fill="#A6A8AB" stroke="#000000" stroke-width="6" stroke-linejoin="round" stroke-miterlimit="10" cx="330.06" cy="656.39" r="13.884"/>
	
		<ellipse id="XMLID_298_" transform="matrix(-0.3538 0.9353 -0.9353 -0.3538 1288.9204 475.4684)" fill="#A6A8AB" stroke="#000000" stroke-width="6" stroke-linejoin="round" stroke-miterlimit="10" cx="480.214" cy="682.979" rx="75.793" ry="61.921"/>
	
		<circle id="XMLID_291_" fill="#A6A8AB" stroke="#000000" stroke-width="6" stroke-linejoin="round" stroke-miterlimit="10" cx="471.095" cy="706.157" r="27.781"/>
	
		<circle id="XMLID_284_" fill="#A6A8AB" stroke="#000000" stroke-width="6" stroke-linejoin="round" stroke-miterlimit="10" cx="518.433" cy="676.482" r="13.884"/>
	
		<circle id="XMLID_222_" fill="#A6A8AB" stroke="#000000" stroke-width="6" stroke-linejoin="round" stroke-miterlimit="10" cx="491.646" cy="644.962" r="13.884"/>
	
		<circle id="XMLID_214_" fill="#A6A8AB" stroke="#000000" stroke-width="6" stroke-linejoin="round" stroke-miterlimit="10" cx="453.223" cy="656.39" r="13.884"/>
	<path id="XMLID_15_" fill="#A6A8AB" stroke="#000000" stroke-width="6" stroke-miterlimit="10" d="M283.461,477.285
		c65.102-52.274,49.408-143.279-60.398-130.958c2.02,4.883,4.799,19.177,4.799,19.177s-27.757-7.998-46.191,0.313
		c3.642,3.612,15.097,13.715,16.799,18.845c0.852,2.562-27.114-3.731-56.734,13.479c-11.521,11.314-17.801,12.808-17.801,12.808
		s28.851,55.1,112.227,92.818c12.913-8.07,26.938-36.321,26.938-36.321S283,477.655,283.461,477.285z"/>
	<circle id="XMLID_334_" cx="252.449" cy="415.975" r="32.459"/>
	<circle id="XMLID_333_" fill="#FFFFFF" cx="261.345" cy="404.57" r="9.129"/>
</g>
</svg>
