<?xml version="1.0" encoding="utf-8"?>
<!-- Generator: Adobe Illustrator 16.0.0, SVG Export Plug-In . SVG Version: 6.00 Build 0)  -->
<!DOCTYPE svg PUBLIC "-//W3C//DTD SVG 1.1//EN" "http://www.w3.org/Graphics/SVG/1.1/DTD/svg11.dtd">
<svg version="1.1" id="Layer_1" xmlns="http://www.w3.org/2000/svg" xmlns:xlink="http://www.w3.org/1999/xlink" xmlns:cb="http://tooniaapp.si/xmlns/toonia" x="0px" y="0px"
	 width="768px" height="768px" viewBox="0 0 768 768" enable-background="new 0 0 768 768" xml:space="preserve">
<rect x="-8.235" y="-4.178" fill="#BBBDBF" stroke="#000000" stroke-width="6" stroke-miterlimit="10" width="784.47" height="777.495"/>
<polygon fill="#BBBDBF" stroke="#000000" stroke-width="6" stroke-miterlimit="10" points="535.088,704.869 535.088,594.267 
	235.388,594.267 235.388,704.869 113.896,704.869 113.896,774.317 658.781,774.317 658.781,704.869 "/>
<polygon fill="#BBBDBF" stroke="#000000" stroke-width="6" stroke-miterlimit="10" points="386.595,612.405 329.81,666.469 
	346.255,680.002 383.21,648.786 383.21,747.906 407.422,747.906 407.401,612.405 "/>
<g>
	<path fill="#BCBEC0" stroke="#000000" stroke-width="6" stroke-miterlimit="10" d="M541.065,438.738
		c-0.043,0.007-0.915,0.018-0.961,0.024c-3.443-91.308-62.562-222.604-63.478-318.395c-0.916-50.674,41.706-52.799,55.158-45.65
		c1.771,0.941,3.577,1.743,5.396,2.418c1.684-8.976,5.093-17.118,6.482-26.145c-2.891-1.305-7.636-3.611-11.161-4.801
		c-32.579-10.991-84.72,11.657-82.538,84.091c-0.006-0.005-0.013-0.009-0.018-0.015c0.003,0.23,1.908,28.096,3.982,37.861
		c3.454,16.016,47.717,199.402,55.584,285.23c5.603,54.434-20.862,72.376-34.878,81.636c-6.778,4.02-14.283,6.677-20.171,7.428
		v21.963c32.336,0.026,66.424-18.843,79.595-58.982C540.097,486.995,541.111,441.081,541.065,438.738z"/>
	<path fill="#BCBEC0" stroke="#000000" stroke-width="6" stroke-miterlimit="10" d="M544.632,202.939
		c9.674-5.018,17.87-7.214,28.899-9.065c-17.12-19.416-32.639-26.303-65.788-29.882c3.442-8.108,9.872-16.637,16.9-23.114
		c-26.454-14.599-81.723-15.923-118.012,12.224l-0.065,0.452c-30.606-34.112-85.046-42.799-113.664-33.262
		c5.736,7.645,10.514,17.199,12.425,25.799c-32.488-2.204-57.33,10.51-70.059,26.754c10.514,3.82,17.508,6.689,26.105,13.375
		c-48.819,8.036-82.461,49.48-86.281,72.414c13.021-4.119,21.152-3.492,28.952,1.158c-0.956,9.555-47.751,61.793-21.952,131.855
		c2.864-7.643,10.488-17.196,18.129-22.931c5.736,28.663,11.637,62.227,38.225,80.262c0.952-5.734,3.815-25.799,5.73-31.532
		c16.241,24.84,37.371,41.598,69.748,55.395c14.237,6.067,151.595,41.9,204.697-30.9c0.839,5.984,1.418,20.437,1.317,26.246
		c32.915-4.613,43.738-35.23,50.75-66.188c6.476,7.024,12.896,19.121,14.698,24.979c40.877-71.996,3.539-123.895,0.693-128.258
		c9.299,0.896,19.717,4.963,31.009,9.824C617.493,285.3,603.444,214.627,544.632,202.939z"/>
	<g id="XMLID_103_">
		<g>
			<path fill="#BCBEC0" stroke="#000000" stroke-width="6" stroke-miterlimit="10" d="M482.194,592.898
				c0.124-0.501,0.244-1.006,0.332-1.533c1.574-9.144-4.605-26.117-21.521-30.114c-0.74-0.085-1.482-0.161-2.232-0.245
				c0-35.84-15.542-103.291-28.098-120.648c-17.724,7.297-63.837,3.885-76.794-0.131c-15.209,18.789-29.677,77.965-28.732,117.792
				c-18.324,3.977-26.849,7.638-26.649,25.997c0.038,3.448,1.204,6.432,3.111,8.883H482.194z"/>
		</g>
	</g>
	<path fill="#BCBEC0" stroke="#000000" stroke-width="6" stroke-miterlimit="10" d="M407.163,466.258
		c-7.586-5.438-24.097-2.725-29.466-0.361c-27.184,11.9-37.452,58.322-29.884,71.16c3.129-4.283,10.967-16.81,10.899-15.631
		c-1.012,18.2,3.415,31.169,15.969,43.476c2.67-6.482,9.548-16.819,16.07-22.217c6.514,5.397,13.493,18.044,17.737,22.217
		c8.304-11.188,14.419-26.723,11.227-42.007c-0.244-1.14,8.264,9.454,12.355,18.208
		C439.288,528.862,438.779,481.597,407.163,466.258z"/>
	<path fill="#BCBEC0" stroke="#000000" stroke-width="6" stroke-miterlimit="10" d="M521.194,266.157
		c-34.461-49.965-107.871-34.146-128.067-4.379c-20.198-29.768-96.88-42.703-126.827,5.529
		c-12.84,20.682-23.522,52.309-16.335,86.066c6.216,29.195,21.707,57.284,65.384,79.424c23.765,12.048,55.475,16.114,76.819,17.018
		v0.034c0.112-0.003,0.226-0.012,0.337-0.018c0.113,0.006,0.228,0.015,0.336,0.018v-0.034c21.347-0.903,53.993-4.97,77.76-17.018
		c43.674-22.14,61.041-50.229,67.259-79.424C545.048,319.616,535.014,286.196,521.194,266.157z"/>
	<g>
		<path d="M309.878,347.245c8.459,9.902,7.296,24.775-2.604,33.234c-9.897,8.463-24.779,7.297-33.239-2.601
			c-8.459-9.902-7.29-24.78,2.608-33.237C286.541,336.179,301.418,337.349,309.878,347.245z"/>
		<path fill="#FFFFFF" d="M289.63,352.577c2.695,3.148,2.32,7.884-0.821,10.571c-3.151,2.692-7.887,2.325-10.574-0.828
			c-2.693-3.146-2.322-7.878,0.827-10.57C282.21,349.058,286.938,349.429,289.63,352.577z"/>
	</g>
	<g>
		<path d="M512.679,347.245c8.459,9.902,7.295,24.775-2.604,33.234c-9.899,8.463-24.78,7.297-33.239-2.601
			c-8.458-9.902-7.289-24.78,2.608-33.237C489.341,336.179,504.219,337.349,512.679,347.245z"/>
		<path fill="#FFFFFF" d="M492.43,352.577c2.694,3.148,2.322,7.884-0.823,10.571c-3.149,2.692-7.885,2.325-10.571-0.828
			c-2.69-3.146-2.321-7.878,0.827-10.57S489.741,349.429,492.43,352.577z"/>
	</g>
	<path fill="#BCBEC0" stroke="#000000" stroke-width="6" stroke-miterlimit="10" d="M288.225,227.929
		c-6.103-9.766-16.883-16.334-29.256-16.506c-19.362-0.268-35.276,15.211-35.546,34.572c-0.211,15.251,9.351,28.357,22.883,33.369
		C254.629,256.323,270.534,234.062,288.225,227.929z"/>
	<path fill="#BCBEC0" stroke="#000000" stroke-width="6" stroke-miterlimit="10" d="M499.923,230.794
		c6.241-9.681,17.108-16.098,29.482-16.098c19.365,0,35.063,15.697,35.063,35.062c0,15.252-9.741,28.224-23.342,33.049
		C536.344,261.465,522.237,238.417,499.923,230.794z"/>
	<path fill="#BCBEC0" stroke="#000000" stroke-width="6" stroke-miterlimit="10" d="M646.925,81.518
		c-24.709,15.194-34.191-7.485-54.046-21.907c-23.2-17.352-46.401-17.094-56.11,0.641c-33.703,61.562,75.393,88.774,95.618,59.609
		c-7.713-0.54-12.853-2.232-16.565-4.788C632.334,109.146,648.214,98.415,646.925,81.518z"/>
	<path d="M370.807,367.428c-0.027,0.47-0.046,0.941-0.046,1.417c0,12.811,23.196,23.193,23.196,23.193s23.195-10.383,23.195-23.193
		c0-0.476-0.018-0.947-0.046-1.417c0,0-9.648-5.616-24.631-5.616C381.243,361.812,370.807,367.428,370.807,367.428z"/>
	<g>
		<path fill="none" stroke="#000000" stroke-width="6" stroke-miterlimit="10" d="M351.002,386.778
			c-16.052,11.114-1.799,27.004,13.425,25.626c14.659-1.318,25.366-10.874,29.972-20.611"/>
		<path fill="none" stroke="#000000" stroke-width="6" stroke-miterlimit="10" d="M436.528,386.778
			c16.051,11.114,1.796,27.004-13.428,25.626c-14.025-1.262-24.427-10.059-29.34-19.344c-0.226-0.424-0.434-0.845-0.634-1.268"/>
	</g>
	<path d="M393.372,392.946c-0.426,0.602-13.135,16.058-23.726,18.877c1.483,12.196,11.855,21.654,24.451,21.654
		c12.013,0,23.167-9.758,25.354-21.131C408.152,409.653,399.217,402.076,393.372,392.946z"/>
</g>
<path fill="#BCBEC0" stroke="#000000" stroke-width="6" stroke-miterlimit="10" d="M152.125,190.822
	c5.688-1.973,9.764-6.999,10.514-12.97l3.685-29.309l26.229-13.581c5.346-2.767,8.657-8.329,8.54-14.347
	c-0.114-6.018-3.638-11.449-9.085-14.007l-26.733-12.559l-4.812-29.145c-0.98-5.942-5.246-10.806-11.008-12.559
	c-5.758-1.749-12.01-0.076-16.126,4.316l-20.208,21.543l-29.205-4.43c-5.951-0.904-11.899,1.649-15.34,6.588
	c-3.443,4.934-3.786,11.398-0.885,16.672l14.248,25.875l-13.24,26.406c-1.171,2.338-1.725,4.875-1.676,7.391
	c0.064,3.279,1.146,6.522,3.199,9.235c3.631,4.803,9.672,7.124,15.584,5.993l29.012-5.553l21.023,20.751
	C140.123,191.362,146.436,192.792,152.125,190.822z"/>
<path fill="#BCBEC0" stroke="#000000" stroke-width="6" stroke-miterlimit="10" d="M729.939,581.691
	c1.084-5.711-1.164-11.539-5.803-15.041l-22.768-17.174l1.244-28.489c0.252-5.806-2.812-11.253-7.908-14.048
	c-5.094-2.797-11.334-2.459-16.094,0.872l-23.369,16.345l-26.715-9.986c-5.445-2.035-11.57-0.802-15.805,3.18
	c-4.233,3.979-5.838,10.02-4.143,15.577l8.322,27.275l-17.752,22.321c-3.617,4.549-4.338,10.757-1.857,16.013
	c2.475,5.254,7.723,8.65,13.532,8.756l28.513,0.513l15.744,23.778c1.393,2.105,3.252,3.787,5.381,4.956
	c2.776,1.523,6.012,2.178,9.271,1.762c5.766-0.729,10.615-4.672,12.51-10.167l9.299-26.96l27.48-7.622
	C724.624,591.998,728.855,587.399,729.939,581.691z"/>
<path fill="#BCBEC0" stroke="#000000" stroke-width="6" stroke-miterlimit="10" d="M199.135,594.44
	c1.112-5.865-1.196-11.851-5.959-15.446l-23.381-17.637l1.275-29.257c0.26-5.962-2.887-11.557-8.119-14.427
	c-5.232-2.872-11.64-2.524-16.529,0.896l-23.997,16.786L94.99,525.1c-5.592-2.09-11.883-0.823-16.23,3.266
	c-4.348,4.086-5.996,10.289-4.254,15.996l8.547,28.011l-18.23,22.922c-3.715,4.672-4.455,11.047-1.909,16.444
	c2.542,5.396,7.931,8.883,13.897,8.991l29.281,0.527l16.168,24.419c1.43,2.161,3.34,3.889,5.525,5.089
	c2.852,1.564,6.174,2.236,9.521,1.81c5.922-0.75,10.901-4.798,12.847-10.44l9.55-27.687l28.221-7.828
	C193.675,605.023,198.02,600.302,199.135,594.44z"/>
</svg>
